<svg xmlns="http://www.w3.org/2000/svg" viewBox="0 0 1280 997"><path fill="#ee7602" d="M469.31 0h2.5c23.11 2.63 46.28 9.76 68.1 17.63q80.62 29.07 151.21 78.33a.32.32 0 0 1-.09.57c-62.24 18.94-98.06 75.29-78.42 139.65 11.91 39.04 37.31 71.03 36.07 114.85-1.91 67.49-63.14 104.74-123.19 112.74-11.91 1.58-17.72-1.52-19.07-13.84Q482.77 233.8 459.16 17.68c-.94-8.55.19-16.19 10.15-17.68Z"/><path fill="#e1002a" d="M713.59 112.25c54.37 41.93 102.13 92.84 140.37 149.85q.29.43.81.45c112.02 4.71 219.4 40.03 313.44 99.87a.31.31 0 0 1-.02.53c-58.7 33.36-118.96 51.41-186.94 50.61q-16.91-.2-33.82-1.18c-31.55-1.82-66.13 3.51-76.77 38.8q-5.34 17.75-5.92 38.26c-.82 29.47-1.97 56.81-7.08 84.58q-4.2 22.83-15.69 43a.43.42 50.1 0 1-.77-.07q-19.73-55.9-52.68-105.49-8.22-12.37-15.45-21.05-.37-.44-.17-.97l80.86-225.88a.21.2 74.6 0 0-.35-.2L701.97 449.18q-.35.43-.89.37-43.11-4.76-86.32-1.04a.27.27 0 0 1-.17-.5c55.68-36.28 67.76-99.72 42.94-158.77-7.16-17.02-17.25-35.98-23.53-55.42-19.49-60.31 22-109.23 78.68-121.77q.51-.11.91.2Z"/><path fill="#ee7602" d="M876.62 655.15c-16.39 7.63-20.25 3.28-26.15-11.93q-.18-.47.13-.86c20.24-26.29 28.46-58.89 31.2-91.44q2.49-29.53 2.89-59.17.09-7.22 2.29-19.75c8.75-49.9 60.17-38.51 96.59-38.13q75.48.8 145.31-28.34 30.71-12.82 59.5-29.24a.67.67 0 0 1 .7.03c27.86 19.3 54.87 41.11 78 65.6 8.05 8.53 20.43 21.02 3.59 29.75q-6.4 3.32-14.44 7.05-124 57.52-379.61 176.43Z"/><path fill="#e1002a" d="M183.89 997H96.21C62.2 991.33 30.45 981.22.59 964.04a.73.72-60.9 0 1-.27-.97l39.57-74.15a.7.69 30 0 1 .98-.26c31.68 20.08 71.21 34.15 109.13 30.39 24.68-2.45 55.11-16.49 48.85-46.9-3.66-17.85-24.42-30.98-39.99-38.81q-21.01-10.55-42.1-20.94c-38.43-18.95-78.14-43.73-91.52-86.65-13.21-42.4-2.37-89.35 28.31-121.46 57.07-59.71 157.79-48.68 226.63-21.27a.78.78 0 0 1 .46.97c-10.73 33.21-24.05 67.28-67.96 61.51-24.06-3.17-60.06-11.05-79.83 8.58-11.11 11.04-12.23 28.11-4.07 41.38 8.09 13.16 25.44 22.25 39.04 28.92 52.6 25.8 116.64 50.42 131.94 113.23q6.17 25.38 1.93 51.63c-9.88 61.11-60.39 96.78-117.8 107.76ZM373.44 997h-12.92l.01-426.79a.46.46 0 0 1 .46-.46h95.76a.5.5 0 0 1 .5.5v173.23a.53.53 0 0 0 .57.53c1.7-.1 2.03-1.11 2.92-2.29q64.68-85.79 129.4-171.54a1.07 1.05-71.4 0 1 .85-.43h116.23a.23.23 0 0 1 .18.38L543.36 771.17a.44.43-45.1 0 0-.01.55l172.9 219.56a.3.29 70.4 0 1-.22.48l-121.99-.01q-.41 0-.66-.34-66.28-90.13-132.65-180.15-.64-.86-1.15-1.28a1.12 1.12 0 0 0-1.83.86v101.41q0 6.04-1.1 13.06c-7.27 46.58-38.05 68.21-83.21 71.69Z"/></svg>